<svg version="1.1" id="Layer_1" xmlns="http://www.w3.org/2000/svg" xmlns:xlink="http://www.w3.org/1999/xlink" x="0px" y="0px" width="100%" viewBox="0 0 1024 1024" enable-background="new 0 0 1024 1024" xml:space="preserve">

<path fill="#0075FE" opacity="1.000000" stroke="none" d="
M791.762207,664.936646 
	C784.589111,676.517761 774.462769,684.884827 762.846252,691.682251 
	C692.305481,732.959656 621.822327,774.335876 551.193420,815.461853 
	C542.828186,820.332825 534.002441,824.846741 524.832153,827.784180 
	C514.880371,830.971985 504.113007,830.129761 494.773590,825.327393 
	C478.739471,817.082642 463.131592,807.980164 447.559753,798.870239 
	C384.599121,762.036377 321.720581,725.062256 258.363708,687.809204 
	C257.609009,687.325806 257.302307,687.172974 256.995605,687.020142 
	C256.585083,686.679199 256.174530,686.338257 255.333160,685.680237 
	C253.999512,684.818237 253.096710,684.273315 252.193909,683.728455 
	C252.193893,683.728455 252.107681,683.830017 252.025452,683.538940 
	C250.969757,682.477295 249.996292,681.706665 249.022812,680.936096 
	C248.539032,680.348145 248.055252,679.760254 247.195816,678.854431 
	C246.619080,678.247498 246.345901,678.068359 246.000595,677.999268 
	C246.000595,677.999268 246.000000,678.000000 245.874817,677.699951 
	C244.171387,675.926208 242.593109,674.452576 241.014832,672.978943 
	C241.014832,672.978943 240.999023,673.000000 240.905914,672.697876 
	C239.913803,671.542236 239.014801,670.688721 238.115799,669.835205 
	C238.115799,669.835205 238.083939,669.932983 238.037781,669.611877 
	C237.361801,668.478455 236.732010,667.666138 236.102203,666.853821 
	C236.102203,666.853821 236.068756,666.948181 236.055054,666.601746 
	C235.367249,665.152161 234.693146,664.049072 234.019043,662.945923 
	C233.705856,662.473022 233.392639,662.000061 233.019348,660.880371 
	C231.656830,656.780884 230.354385,653.328064 229.051941,649.875305 
	C229.051941,649.875305 229.018707,649.424072 229.128662,649.034058 
	C229.162704,648.094421 229.086777,647.544922 229.010864,646.995361 
	C229.012665,646.545898 229.014481,646.096497 228.995850,644.929810 
	C228.662430,642.467590 228.349457,640.722717 228.036484,638.977783 
	C228.048416,638.531006 228.060349,638.084229 228.028320,636.848389 
	C227.937958,628.378296 227.891556,620.697266 227.845154,613.016235 
	C227.892059,611.938721 227.938965,610.861267 227.975891,608.920349 
	C227.657516,597.697693 227.349091,587.338440 227.040665,576.979187 
	C227.043884,574.273438 227.047104,571.567688 227.032562,568.091919 
	C227.077423,566.885254 227.140060,566.448669 227.447220,565.677856 
	C227.795197,564.525879 227.988998,563.708069 227.989212,562.890259 
	C228.002701,507.535156 228.005936,452.180023 227.966568,396.824951 
	C227.965668,395.564758 227.467773,394.304871 227.201736,393.044861 
	C227.195358,390.003876 227.188980,386.962860 227.259949,383.095123 
	C227.512146,378.517212 227.686981,374.766083 227.861816,371.014923 
	C227.932678,370.571198 228.003540,370.127441 228.286346,369.057739 
	C228.956787,365.958191 229.415298,363.484680 229.873810,361.011139 
	C229.930466,360.293854 229.987122,359.576538 230.352722,358.343445 
	C231.177536,356.574219 231.693405,355.320801 232.209259,354.067352 
	C238.867203,341.365295 248.727982,331.951355 261.143799,324.831757 
	C329.490265,285.639923 397.740112,246.279694 466.076630,207.070541 
	C474.830566,202.047852 483.685425,197.102890 492.867035,192.947098 
	C506.359283,186.840195 520.639343,186.398758 533.798401,192.975098 
	C553.334412,202.738434 572.307495,213.662369 591.280457,224.511551 
	C643.261414,254.235474 695.117126,284.178253 747.540100,314.345703 
	C749.036072,315.109772 750.014343,315.562500 750.992676,316.015259 
	C750.992676,316.015259 750.997803,315.997162 751.096313,316.190552 
	C751.369324,316.663849 751.619080,316.775665 751.944031,316.719360 
	C751.944031,316.719360 752.360779,316.985413 752.725525,317.232666 
	C753.302551,317.792633 753.593506,317.909698 753.963196,317.831055 
	C753.963196,317.831055 754.312378,318.064423 754.653564,318.310425 
	C755.321655,318.669525 755.648560,318.782623 755.975403,318.895721 
	C756.449951,319.240417 756.924438,319.585144 757.803528,320.141632 
	C758.383301,320.610199 758.625061,320.718628 758.933350,320.678650 
	C759.074097,320.772980 759.214844,320.867340 759.717041,321.233948 
	C760.376221,321.621735 760.673950,321.737244 760.971741,321.852783 
	C760.971741,321.852783 761.340942,322.059875 761.739441,322.361389 
	C764.737488,324.145325 767.336975,325.627716 769.936523,327.110107 
	C769.936523,327.110138 769.965271,327.033813 770.028442,327.283966 
	C770.397278,327.680573 770.702942,327.827026 771.008667,327.973480 
	C771.008667,327.973480 771.009583,328.008850 771.125732,328.167542 
	C771.406067,328.562988 771.632202,328.678894 771.920227,328.673889 
	C772.361816,329.079285 772.803406,329.484680 773.658325,330.209045 
	C774.376648,330.703613 774.681641,330.879211 774.986572,331.054810 
	C775.520630,331.623199 776.054749,332.191559 777.015259,333.131348 
	C778.255859,334.125549 779.070068,334.748322 779.884216,335.371094 
	C780.310547,335.893768 780.736877,336.416443 781.556519,337.311646 
	C782.977417,338.752686 784.004944,339.821136 785.032532,340.889587 
	C785.180847,341.194031 785.329163,341.498444 785.794006,342.163635 
	C786.391724,342.734131 786.672974,342.943817 786.954163,343.153534 
	C787.274170,343.643646 787.594116,344.133728 788.144775,345.049194 
	C788.533752,345.708832 788.742004,345.883575 789.000305,345.998718 
	C789.000305,345.998718 789.000000,346.000000 789.079712,346.321777 
	C790.069275,347.885651 790.979065,349.127716 791.888855,350.369812 
	C791.888855,350.369812 791.865967,350.724457 792.007446,351.216248 
	C793.106323,353.781982 794.063660,355.855927 795.020996,357.929871 
	C795.011536,358.114624 795.002014,358.299377 795.050049,359.111572 
	C795.639709,361.541595 796.171814,363.344208 796.703979,365.146820 
	C796.785950,365.565155 796.867920,365.983490 796.990967,367.057922 
	C797.308228,368.832428 797.584351,369.950836 797.860474,371.069244 
	C797.909912,372.445953 797.959351,373.822693 798.021240,376.066895 
	C798.327332,381.635773 798.621033,386.337158 798.914795,391.038574 
	C798.871643,391.480011 798.828552,391.921417 798.834717,393.013763 
	C798.946655,394.108521 799.009338,394.552399 799.072021,394.996246 
	C799.021912,396.728729 798.971802,398.461212 798.640259,400.848083 
	C798.510071,402.655426 798.661316,403.808380 798.812500,404.961304 
	C798.858765,407.030487 798.905029,409.099701 798.628540,411.929016 
	C798.203064,413.673279 798.010742,414.657379 798.010559,415.641571 
	C797.997192,483.986359 797.994385,552.331116 798.033447,620.675903 
	C798.034241,622.102356 798.535156,623.528625 798.802734,624.954956 
	C798.803223,627.335266 798.803711,629.715637 798.717285,632.894653 
	C798.470215,636.124207 798.310059,638.555054 798.149841,640.985901 
	C798.054504,641.734863 797.959167,642.483826 797.749512,643.950684 
	C797.139282,647.441101 796.643311,650.213562 796.147339,652.986084 
	C796.042236,653.405579 795.937134,653.825012 795.573486,654.752686 
	C795.247009,655.837524 795.179077,656.414062 795.111145,656.990662 
	C795.111145,656.990662 794.914124,657.345337 794.639221,657.751953 
	C793.942261,659.435852 793.520203,660.713135 793.098145,661.990356 
	C793.098145,661.990356 792.901184,662.325378 792.622986,662.696533 
	C792.150574,663.690674 791.956360,664.313660 791.762207,664.936646 
M260.341522,363.147522 
	C260.144653,363.738678 259.947784,364.329834 259.877319,364.926147 
	C259.877319,364.926147 259.841858,364.804718 259.261414,365.187897 
	C258.557312,367.121674 257.853210,369.055420 256.983246,371.553650 
	C256.962189,371.943726 256.941162,372.333801 256.484161,373.003479 
	C256.392273,373.320435 256.300354,373.637421 256.006165,374.664368 
	C255.926819,375.398163 255.847488,376.131989 255.397888,376.927856 
	C255.397888,376.927856 255.031418,377.009521 254.489120,377.443024 
	C254.605682,378.953125 254.722229,380.463226 254.973938,382.649963 
	C255.028687,383.105682 255.083435,383.561371 254.971725,383.986053 
	C254.971725,383.986053 254.803207,383.969269 254.314529,384.640289 
	C254.216019,385.126221 254.031311,385.612091 254.031204,386.098053 
	C254.013702,457.843109 254.001389,529.588196 254.074219,601.333191 
	C254.075455,602.548218 255.115585,603.762268 255.836288,605.902649 
	C255.924423,612.277100 256.012573,618.651550 255.967117,625.885925 
	C256.015747,627.912598 256.064362,629.939270 255.967346,632.721130 
	C256.027557,633.484741 256.087769,634.248413 256.029938,635.724670 
	C256.286896,636.854492 256.543854,637.984314 256.814331,639.762512 
	C256.925934,640.179504 257.037506,640.596558 257.047943,641.614502 
	C257.313843,642.101379 257.579742,642.588196 257.944000,643.752625 
	C258.062927,644.188538 258.181854,644.624512 258.336060,645.490173 
	C258.501587,645.735718 258.719452,645.919067 259.009949,646.548767 
	C259.064117,646.709473 259.118317,646.870239 259.141479,647.546265 
	C259.398956,647.756409 259.656433,647.966553 259.927063,648.056641 
	C259.927063,648.056641 259.806976,648.069763 259.924652,648.771057 
	C260.927521,650.578674 261.930389,652.386230 263.123871,654.829590 
	C265.373413,657.233582 267.622986,659.637512 270.194427,662.590942 
	C271.123199,663.075806 272.051941,663.560730 273.282562,664.552612 
	C273.827026,664.762451 274.371460,664.972229 275.217499,665.723633 
	C276.140350,666.162537 277.063202,666.601440 278.278320,667.528564 
	C278.809052,667.698608 279.339783,667.868652 280.101685,668.470276 
	C280.305603,668.789795 280.591095,668.902344 281.358246,669.021362 
	C281.358246,669.021362 281.810242,669.058105 282.044128,669.528564 
	C282.354034,669.649414 282.663940,669.770325 283.534760,670.303955 
	C284.523926,670.907166 285.502411,671.528809 286.503784,672.111023 
	C326.066193,695.112000 365.687439,718.012451 405.176025,741.139343 
	C434.221954,758.150391 462.964996,775.682922 492.152313,792.444397 
	C498.110046,795.865845 505.315979,797.865845 512.178589,798.781067 
	C522.156067,800.111694 530.728943,794.988342 539.063171,790.091797 
	C573.095215,770.097595 607.082275,750.026428 641.170471,730.128662 
	C676.976196,709.228333 712.900818,688.531921 748.718872,667.652649 
	C755.301453,663.815430 761.861816,659.784241 765.572449,652.034302 
	C765.669250,651.703735 765.766052,651.373169 766.021179,650.613159 
	C766.021179,650.613159 766.056946,650.156860 766.538513,649.944153 
	C766.665344,649.637268 766.792175,649.330383 767.137756,648.751770 
	C767.137756,648.751770 767.104126,648.404602 767.591492,648.097595 
	C767.690857,647.741333 767.790222,647.385010 768.117859,646.470581 
	C768.106812,646.070007 768.095764,645.669434 768.667480,644.884094 
	C769.067383,643.580444 769.467285,642.276794 770.090759,640.524109 
	C770.299866,640.079102 770.509033,639.634033 771.395691,638.614014 
	C771.596375,637.655579 771.970642,636.697510 771.972290,635.738708 
	C772.006714,615.245972 772.012024,594.753113 771.965393,574.260376 
	C771.962891,573.163086 771.454346,572.066956 771.012512,570.982727 
	C771.012512,570.982727 770.848572,571.025085 770.966919,570.347473 
	C770.927856,569.892273 770.888794,569.437134 771.015137,569.015076 
	C771.015137,569.015076 771.183655,569.019897 771.680847,568.356873 
	C771.780273,567.871521 771.966614,567.386169 771.966736,566.900818 
	C771.986084,503.680328 772.007996,440.459778 771.912170,377.239441 
	C771.909546,375.525818 770.630249,373.814117 769.495239,371.975098 
	C769.495239,371.975098 769.049316,371.831573 769.046143,371.091309 
	C765.764099,359.474548 757.047058,352.672638 747.270325,347.028595 
	C699.448608,319.421509 651.573364,291.907135 603.694275,264.399658 
	C579.983154,250.777145 556.363831,236.982819 532.382690,223.851166 
	C526.624878,220.698303 519.699463,219.211197 513.118652,218.139938 
	C503.819031,216.626114 496.188782,222.021042 488.672821,226.333374 
	C418.507172,266.591156 348.399628,306.951080 278.428223,347.545105 
	C272.385315,351.050964 267.438385,356.446014 261.475342,361.288330 
	C261.255707,361.842316 261.036102,362.396271 260.923340,362.945068 
	C260.923340,362.945068 260.891541,362.842926 260.341522,363.147522 
z" data-index="1" style="opacity: 1; visibility: visible; fill: rgb(52, 20, 215);"></path>
<path fill="#008BFD" opacity="1.000000" stroke="none" d="
M798.869629,624.493591 
	C798.535156,623.528625 798.034241,622.102356 798.033447,620.675903 
	C797.994385,552.331116 797.997192,483.986359 798.010559,415.641571 
	C798.010742,414.657379 798.203064,413.673279 798.560364,412.367981 
	C798.875000,414.415405 798.935120,416.783905 799.004150,420.049011 
	C799.055786,424.952820 799.098389,428.959991 799.141052,432.967194 
	C799.092651,438.678223 799.044312,444.389221 799.005615,450.930054 
	C799.057068,452.496490 799.098694,453.233124 799.140381,453.969727 
	C799.091187,458.016418 799.041992,462.063110 799.002686,466.978699 
	C799.054688,469.221344 799.096863,470.595154 799.139038,471.968933 
	C799.089600,478.678253 799.040161,485.387543 799.000610,492.884399 
	C799.052002,494.105408 799.093567,494.538879 799.135132,494.972382 
	C799.088013,498.685303 799.041016,502.398254 799.004700,506.891541 
	C799.055908,508.105713 799.096497,508.539459 799.137085,508.973236 
	C799.089661,513.019043 799.042297,517.064819 799.003235,522.001465 
	C799.052612,524.917847 799.093689,526.943420 799.134766,528.968994 
	C799.086487,531.028748 799.038208,533.088501 799.009827,535.823853 
	C799.029724,536.499512 799.136536,536.978149 799.136536,536.978149 
	C799.088562,542.685730 799.040649,548.393372 799.001831,554.956787 
	C799.052734,556.864807 799.094482,557.916992 799.136169,558.969238 
	C799.087830,570.005615 799.039551,581.042053 799.002869,592.871704 
	C799.055603,594.107849 799.096680,594.550598 799.137756,594.993408 
	C799.070679,604.673035 799.003601,614.352600 798.869629,624.493591 
z" data-index="2"></path>
<path fill="#008BFD" opacity="1.000000" stroke="none" d="
M227.129211,393.373413 
	C227.467773,394.304871 227.965668,395.564758 227.966568,396.824951 
	C228.005936,452.180023 228.002701,507.535156 227.989212,562.890259 
	C227.988998,563.708069 227.795197,564.525879 227.376862,565.264099 
	C226.996429,563.791809 226.930893,562.399170 226.865341,561.006470 
	C226.910828,555.969971 226.956299,550.933411 226.992584,545.068237 
	C226.941971,543.503296 226.900543,542.767090 226.859131,542.030823 
	C226.905853,537.983459 226.952576,533.936035 226.990662,529.019714 
	C226.940826,526.777954 226.899612,525.405151 226.858398,524.032349 
	C226.905640,517.321472 226.952866,510.610626 226.990417,503.069519 
	C226.939484,501.503357 226.898224,500.767426 226.856979,500.031464 
	C226.903793,491.654877 226.950607,483.278320 226.987366,474.114380 
	C226.936874,472.894287 226.896439,472.461517 226.855988,472.028778 
	C226.904587,466.319733 226.953201,460.610687 226.991364,454.114655 
	C226.940353,452.894409 226.899765,452.461121 226.859192,452.027863 
	C226.906769,450.626404 226.954346,449.224945 226.992737,446.975952 
	C226.941498,444.095703 226.899475,442.062958 226.857452,440.030212 
	C226.904205,439.570312 226.950974,439.110413 226.990875,437.900940 
	C226.942184,435.778259 226.900360,434.405090 226.858536,433.031952 
	C226.907333,422.321472 226.956146,411.610992 226.996597,400.026367 
	C226.946869,397.778107 226.905472,396.403961 226.864090,395.029816 
	C226.928284,394.587189 226.992477,394.144592 227.129211,393.373413 
z" data-index="3" style="opacity: 1;"></path>

<path fill="#0D0405" opacity="1.000000" stroke="none" d="
M227.462311,613.119812 
	C227.891556,620.697266 227.937958,628.378296 227.932953,636.524719 
	C226.973251,636.201172 225.261810,635.390930 225.282028,634.626526 
	C225.465012,627.702515 225.944031,620.786072 226.376846,613.869934 
	C226.391190,613.640625 226.835571,613.438293 227.462311,613.119812 
z" data-index="5" style="visibility: hidden;"></path>
<path fill="#0D0405" opacity="1.000000" stroke="none" d="
M799.223572,390.752319 
	C798.621033,386.337158 798.327332,381.635773 798.093445,376.474335 
	C798.768494,377.137695 799.880127,378.249115 799.907593,379.386627 
	C799.996521,383.074615 799.687927,386.772186 799.223572,390.752319 
z" data-index="6"></path>
<path fill="#0D0405" opacity="1.000000" stroke="none" d="
M227.481842,371.114624 
	C227.686981,374.766083 227.512146,378.517212 227.192505,382.644653 
	C227.065735,379.085419 227.083786,375.149841 227.481842,371.114624 
z" data-index="7"></path>

<path fill="#0D0405" opacity="1.000000" stroke="none" d="
M229.035049,650.305908 
	C230.354385,653.328064 231.656830,656.780884 232.905426,660.610840 
	C228.729553,658.634399 229.113434,654.595886 229.035049,650.305908 
z" data-index="9" style="visibility: hidden;"></path>

<path fill="#0D0405" opacity="1.000000" stroke="none" d="
M796.500244,652.906250 
	C796.643311,650.213562 797.139282,647.441101 797.798645,644.325684 
	C797.592407,646.930664 797.222839,649.878479 796.500244,652.906250 
z" data-index="11"></path>
<path fill="#0D0405" opacity="1.000000" stroke="none" d="
M798.516113,640.894043 
	C798.310059,638.555054 798.470215,636.124207 798.788330,633.335693 
	C798.925049,635.585999 798.903748,638.194092 798.516113,640.894043 
z" data-index="12"></path>
<path fill="#0D0405" opacity="1.000000" stroke="none" d="
M799.403809,432.657410 
	C799.098389,428.959991 799.055786,424.952820 799.076172,420.488464 
	C799.314941,424.136749 799.490723,428.242157 799.403809,432.657410 
z" data-index="13"></path>

<path fill="#0D0405" opacity="1.000000" stroke="none" d="
M226.596115,440.265991 
	C226.899475,442.062958 226.941498,444.095703 226.920837,446.560425 
	C223.084198,445.119110 225.528122,442.744446 226.596115,440.265991 
z" data-index="15" style="visibility: hidden;"></path>
<path fill="#0D0405" opacity="1.000000" stroke="none" d="
M227.757324,639.224976 
	C228.349457,640.722717 228.662430,642.467590 228.914886,644.600647 
	C228.395645,643.149902 227.936920,641.311096 227.757324,639.224976 
z" data-index="16"></path>
<path fill="#0D0405" opacity="1.000000" stroke="none" d="
M241.018402,673.353638 
	C242.593109,674.452576 244.171387,675.926208 245.875259,677.699707 
	C244.341248,676.575867 242.681610,675.152039 241.018402,673.353638 
z" data-index="17"></path>
<path fill="#0D0405" opacity="1.000000" stroke="none" d="
M797.003174,364.945374 
	C796.171814,363.344208 795.639709,361.541595 795.135925,359.375427 
	C795.876953,360.922577 796.589722,362.833282 797.003174,364.945374 
z" data-index="18"></path>
<path fill="#0D0405" opacity="1.000000" stroke="none" d="
M795.006287,357.536102 
	C794.063660,355.855927 793.106323,353.781982 792.115417,351.357422 
	C793.051758,353.051971 794.021667,355.097137 795.006287,357.536102 
z" data-index="19"></path>
<path fill="#0D0405" opacity="1.000000" stroke="none" d="
M791.917847,349.954895 
	C790.979065,349.127716 790.069275,347.885651 789.080078,346.321533 
	C789.982727,347.179688 790.964783,348.359863 791.917847,349.954895 
z" data-index="20"></path>
<path fill="#0D0405" opacity="1.000000" stroke="none" d="
M785.016296,340.492249 
	C784.004944,339.821136 782.977417,338.752686 781.798767,337.398560 
	C782.765076,338.106873 783.882568,339.100861 785.016296,340.492249 
z" data-index="21"></path>
<path fill="#0D0405" opacity="1.000000" stroke="none" d="
M798.139282,370.860626 
	C797.584351,369.950836 797.308228,368.832428 797.085510,367.363464 
	C797.565369,368.225952 797.991760,369.438995 798.139282,370.860626 
z" data-index="22"></path>
<path fill="#0D0405" opacity="1.000000" stroke="none" d="
M799.385376,528.696960 
	C799.093689,526.943420 799.052612,524.917847 799.074951,522.462158 
	C799.304260,524.163025 799.470093,526.294006 799.385376,528.696960 
z" data-index="23"></path>

<path fill="#0D0405" opacity="1.000000" stroke="none" d="
M793.460632,661.910156 
	C793.520203,660.713135 793.942261,659.435852 794.641052,657.954834 
	C794.552856,659.110657 794.187988,660.470337 793.460632,661.910156 
z" data-index="25"></path>
<path fill="#0D0405" opacity="1.000000" stroke="none" d="
M234.018311,663.332642 
	C234.693146,664.049072 235.367249,665.152161 236.100800,666.581421 
	C235.446014,665.844788 234.731781,664.782043 234.018311,663.332642 
z" data-index="26"></path>
<path fill="#0D0405" opacity="1.000000" stroke="none" d="
M249.024841,681.322937 
	C249.996292,681.706665 250.969757,682.477295 252.090240,683.523499 
	C251.167114,683.102600 250.096985,682.406189 249.024841,681.322937 
z" data-index="27"></path>
<path fill="#0D0405" opacity="1.000000" stroke="none" d="
M238.086792,670.219116 
	C239.014801,670.688721 239.913803,671.542236 240.916290,672.690796 
	C240.032440,672.191650 239.045105,671.397339 238.086792,670.219116 
z" data-index="28"></path>
<path fill="#0D0405" opacity="1.000000" stroke="none" d="
M779.882690,335.007599 
	C779.070068,334.748322 778.255859,334.125549 777.296387,333.230438 
	C778.061157,333.520142 778.971130,334.082123 779.882690,335.007599 
z" data-index="29"></path>
<path fill="#0D0405" opacity="1.000000" stroke="none" d="
M252.182098,684.110413 
	C253.096710,684.273315 253.999512,684.818237 255.059494,685.644043 
	C254.201202,685.447388 253.185760,684.969910 252.182098,684.110413 
z" data-index="30"></path>
<path fill="#0D0405" opacity="1.000000" stroke="none" d="
M226.619171,433.274048 
	C226.900360,434.405090 226.942184,435.778259 226.920990,437.559570 
	C226.698593,436.483856 226.539185,435.000031 226.619171,433.274048 
z" data-index="31"></path>
<path fill="#0D0405" opacity="1.000000" stroke="none" d="
M226.623520,395.271545 
	C226.905472,396.403961 226.946869,397.778107 226.924866,399.560608 
	C226.701981,398.483734 226.542465,396.998535 226.623520,395.271545 
z" data-index="32"></path>

<path fill="#0D0405" opacity="1.000000" stroke="none" d="
M226.619064,524.274292 
	C226.899612,525.405151 226.940826,526.777954 226.919495,528.558838 
	C226.697891,527.483337 226.538818,525.999817 226.619064,524.274292 
z" data-index="34"></path>
<path fill="#0D0405" opacity="1.000000" stroke="none" d="
M236.077850,667.228760 
	C236.732010,667.666138 237.361801,668.478455 238.084686,669.590820 
	C237.469681,669.128479 236.761597,668.366089 236.077850,667.228760 
z" data-index="35"></path>
<path fill="#0D0405" opacity="1.000000" stroke="none" d="
M799.378784,471.726807 
	C799.096863,470.595154 799.054688,469.221344 799.075562,467.439240 
	C799.298584,468.515503 799.458557,470.000122 799.378784,471.726807 
z" data-index="36"></path>

<path fill="#0D0405" opacity="1.000000" stroke="none" d="
M795.406860,656.949951 
	C795.179077,656.414062 795.247009,655.837524 795.545410,655.076050 
	C795.751404,655.563904 795.727051,656.236572 795.406860,656.949951 
z" data-index="38"></path>
<path fill="#0D0405" opacity="1.000000" stroke="none" d="
M799.419312,594.951904 
	C799.096680,594.550598 799.055603,594.107849 799.075928,593.335754 
	C799.620239,593.323059 800.103149,593.639587 800.585999,593.956177 
	C800.290955,594.274231 799.995911,594.592346 799.419312,594.951904 
z" data-index="39"></path>
<path fill="#0D0405" opacity="1.000000" stroke="none" d="
M799.369507,558.749756 
	C799.094482,557.916992 799.052734,556.864807 799.074097,555.421753 
	C799.292480,556.197388 799.447693,557.363831 799.369507,558.749756 
z" data-index="40"></path>
<path fill="#0D0405" opacity="1.000000" stroke="none" d="
M799.363647,394.954742 
	C799.009338,394.552399 798.946655,394.108521 798.943359,393.331787 
	C799.519775,393.306732 800.036804,393.614502 800.553833,393.922302 
	C800.254333,394.252625 799.954834,394.582947 799.363647,394.954742 
z" data-index="41"></path>
<path fill="#008BFD" opacity="1.000000" stroke="none" d="
M798.875000,404.573120 
	C798.661316,403.808380 798.510071,402.655426 798.577148,401.277527 
	C798.842834,402.096680 798.890198,403.140839 798.875000,404.573120 
z" data-index="42"></path>
<path fill="#0D0405" opacity="1.000000" stroke="none" d="
M226.637131,542.220886 
	C226.900543,542.767090 226.941971,543.503296 226.920990,544.604248 
	C226.710754,544.116211 226.562943,543.263611 226.637131,542.220886 
z" data-index="43"></path>
<path fill="#0D0405" opacity="1.000000" stroke="none" d="
M226.635422,500.221619 
	C226.898224,500.767426 226.939484,501.503357 226.918732,502.603851 
	C226.709106,502.116180 226.561493,501.263947 226.635422,500.221619 
z" data-index="44"></path>
<path fill="#0D0405" opacity="1.000000" stroke="none" d="
M799.362305,453.779480 
	C799.098694,453.233124 799.057068,452.496490 799.077942,451.395081 
	C799.288391,451.883209 799.436340,452.736206 799.362305,453.779480 
z" data-index="45"></path>
<path fill="#0D0405" opacity="1.000000" stroke="none" d="
M226.656113,472.177521 
	C226.896439,472.461517 226.936874,472.894287 226.916016,473.648651 
	C226.721893,473.422272 226.589066,472.874268 226.656113,472.177521 
z" data-index="46"></path>
<path fill="#0D0405" opacity="1.000000" stroke="none" d="
M799.338135,508.824524 
	C799.096497,508.539459 799.055908,508.105713 799.077026,507.349548 
	C799.272156,507.576752 799.405701,508.126312 799.338135,508.824524 
z" data-index="47"></path>
<path fill="#0D0405" opacity="1.000000" stroke="none" d="
M226.658707,452.176636 
	C226.899765,452.461121 226.940353,452.894409 226.919769,453.649719 
	C226.725143,453.423004 226.591690,452.874237 226.658707,452.176636 
z" data-index="48"></path>
<path fill="#0D0405" opacity="1.000000" stroke="none" d="
M792.063721,664.777344 
	C791.956360,664.313660 792.150574,663.690674 792.622559,662.890869 
	C792.722046,663.348633 792.543701,663.983337 792.063721,664.777344 
z" data-index="49"></path>
<path fill="#0D0405" opacity="1.000000" stroke="none" d="
M799.336548,494.823914 
	C799.093567,494.538879 799.052002,494.105408 799.072632,493.349762 
	C799.269226,493.576904 799.403625,494.126190 799.336548,494.823914 
z" data-index="50"></path>
<path fill="#0D0405" opacity="1.000000" stroke="none" d="
M257.130127,687.239868 
	C257.302307,687.172974 257.609009,687.325806 258.034241,687.716858 
	C257.856750,687.789978 257.560699,687.624817 257.130127,687.239868 
z" data-index="51"></path>
<path fill="#0D0405" opacity="1.000000" stroke="none" d="
M774.858276,330.820618 
	C774.681641,330.879211 774.376648,330.703613 773.948730,330.288239 
	C774.127197,330.227783 774.428589,330.407104 774.858276,330.820618 
z" data-index="52"></path>
<path fill="#0D0405" opacity="1.000000" stroke="none" d="
M246.118652,678.213257 
	C246.345901,678.068359 246.619080,678.247498 246.919617,678.765869 
	C246.702835,678.882202 246.442047,678.692871 246.118652,678.213257 
z" data-index="53"></path>
<path fill="#0D0405" opacity="1.000000" stroke="none" d="
M788.919922,345.819489 
	C788.742004,345.883575 788.533752,345.708832 788.343384,345.271271 
	C788.534424,345.215240 788.710571,345.406006 788.919922,345.819489 
z" data-index="54"></path>
<path fill="#0D0405" opacity="1.000000" stroke="none" d="
M771.798401,328.529907 
	C771.632202,328.678894 771.406067,328.562988 771.140015,328.157043 
	C771.274292,328.082977 771.487122,328.215637 771.798401,328.529907 
z" data-index="55"></path>
<path fill="#0D0405" opacity="1.000000" stroke="none" d="
M770.879395,327.756653 
	C770.702942,327.827026 770.397278,327.680573 769.988037,327.289612 
	C770.172974,327.210022 770.461548,327.374939 770.879395,327.756653 
z" data-index="56"></path>
<path fill="#0D0405" opacity="1.000000" stroke="none" d="
M786.859375,342.907562 
	C786.672974,342.943817 786.391724,342.734131 786.034302,342.267395 
	C786.226868,342.227448 786.495667,342.444519 786.859375,342.907562 
z" data-index="57"></path>
<path fill="#0D0405" opacity="1.000000" stroke="none" d="
M751.815735,316.561035 
	C751.619080,316.775665 751.369324,316.663849 751.087463,316.195740 
	C751.245544,316.086212 751.481323,316.217926 751.815735,316.561035 
z" data-index="58"></path>

<path fill="#0D0405" opacity="1.000000" stroke="none" d="
M753.824707,317.641632 
	C753.593506,317.909698 753.302551,317.792633 752.970947,317.262207 
	C753.169128,317.100037 753.447327,317.235931 753.824707,317.641632 
z" data-index="60" style="visibility: hidden;"></path>
<path fill="#0D0405" opacity="1.000000" stroke="none" d="
M799.282410,536.888672 
	C799.136536,536.978149 799.029724,536.499512 799.082642,536.260010 
	C799.233154,536.280151 799.330750,536.539673 799.282410,536.888672 
z" data-index="61"></path>
<path fill="#0D0405" opacity="1.000000" stroke="none" d="
M758.803162,320.529968 
	C758.625061,320.718628 758.383301,320.610199 758.095459,320.178558 
	C758.238586,320.082581 758.468628,320.208435 758.803162,320.529968 
z" data-index="62"></path>
<path fill="#0D0405" opacity="1.000000" stroke="none" d="
M755.824097,318.686432 
	C755.648560,318.782623 755.321655,318.669525 754.863403,318.319885 
	C755.045532,318.214569 755.359131,318.345856 755.824097,318.686432 
z" data-index="63"></path>

<path fill="#008BFD" opacity="1.000000" stroke="none" d="
M254.558868,384.304779 
	C254.863281,386.354431 254.923355,388.739563 254.993530,391.989929 
	C255.046921,394.567719 255.090210,396.280334 255.133484,397.992950 
	C255.086227,398.749023 255.038971,399.505066 255.005310,400.963318 
	C255.059814,402.107483 255.100708,402.549500 255.141617,402.991516 
	C255.094193,408.355042 255.046783,413.718597 255.008789,419.969421 
	C255.059448,422.568207 255.100662,424.279663 255.141876,425.991119 
	C255.094070,428.040924 255.046265,430.090729 255.008026,433.031128 
	C255.059555,437.611511 255.101517,441.301361 255.143463,444.991180 
	C255.095230,446.387756 255.046997,447.784302 255.007385,450.040527 
	C255.059357,453.596741 255.102707,456.293304 255.146057,458.989868 
	C255.097565,460.064056 255.049088,461.138275 255.009445,463.075012 
	C255.068909,500.145905 255.122467,536.354248 255.166458,572.562622 
	C255.172073,577.181702 255.127792,581.800720 255.078781,586.809448 
	C255.209229,588.434326 255.367508,589.669556 255.622803,591.355103 
	C255.826630,594.868347 255.933441,597.931274 256.040253,600.994141 
	C255.966125,602.058960 255.891998,603.123718 255.744415,604.582642 
	C255.115585,603.762268 254.075455,602.548218 254.074219,601.333191 
	C254.001389,529.588196 254.013702,457.843109 254.031204,386.098053 
	C254.031311,385.612091 254.216019,385.126221 254.558868,384.304779 
z" data-index="65" style="opacity: 1;"></path>
<path fill="#008BFD" opacity="1.000000" stroke="none" d="
M770.857300,474.023987 
	C770.905396,442.316650 770.953491,410.609283 770.942505,378.174255 
	C770.602844,377.249481 770.322388,377.052368 770.041870,376.855286 
	C770.027893,375.815918 770.013977,374.776520 769.982849,373.140961 
	C769.965698,372.544769 769.946289,372.101532 769.946289,372.101532 
	C770.630249,373.814117 771.909546,375.525818 771.912170,377.239441 
	C772.007996,440.459778 771.986084,503.680328 771.966736,566.900818 
	C771.966614,567.386169 771.780273,567.871521 771.432251,568.688354 
	C771.124939,537.981812 771.066223,506.943726 770.984619,475.202789 
	C770.961731,474.499939 770.857239,474.023987 770.857300,474.023987 
z" data-index="66"></path>
<path fill="#008BFD" opacity="1.000000" stroke="none" d="
M770.840820,636.012268 
	C770.912170,614.642822 770.983582,593.273315 771.118164,571.437073 
	C771.454346,572.066956 771.962891,573.163086 771.965393,574.260376 
	C772.012024,594.753113 772.006714,615.245972 771.972290,635.738708 
	C771.970642,636.697510 771.596375,637.655579 771.056946,638.901489 
	C770.718201,639.189026 770.430481,639.111694 770.525269,638.757629 
	C770.693604,637.606445 770.767212,636.809387 770.840820,636.012268 
z" data-index="67"></path>
<path fill="#0D0405" opacity="1.000000" stroke="none" d="
M255.583038,376.896820 
	C255.721680,379.077301 255.675186,381.288849 255.383423,383.758728 
	C255.083435,383.561371 255.028687,383.105682 254.980698,381.903168 
	C255.002106,379.774078 255.016769,378.391815 255.031418,377.009521 
	C255.031418,377.009521 255.397888,376.927856 255.583038,376.896820 
z" data-index="68"></path>
<path fill="#0D0405" opacity="1.000000" stroke="none" d="
M259.551636,364.996307 
	C259.177948,366.819702 258.514008,368.834686 257.499603,370.919434 
	C257.853210,369.055420 258.557312,367.121674 259.551636,364.996307 
z" data-index="69"></path>
<path fill="#0D0405" opacity="1.000000" stroke="none" d="
M259.865814,648.420410 
	C260.861328,649.851440 261.915680,651.633057 262.951630,653.804321 
	C261.930389,652.386230 260.927521,650.578674 259.865814,648.420410 
z" data-index="70"></path>
<path fill="#0D0405" opacity="1.000000" stroke="none" d="
M256.088959,635.368347 
	C256.555817,636.240540 256.963654,637.469055 257.086151,638.905884 
	C256.543854,637.984314 256.286896,636.854492 256.088959,635.368347 
z" data-index="71"></path>
<path fill="#0D0405" opacity="1.000000" stroke="none" d="
M256.033905,625.455933 
	C256.275421,627.160034 256.450104,629.294128 256.368896,631.697021 
	C256.064362,629.939270 256.015747,627.912598 256.033905,625.455933 
z" data-index="72"></path>
<path fill="#0D0405" opacity="1.000000" stroke="none" d="
M275.066711,665.452881 
	C275.921722,665.578796 276.927521,665.975525 277.959686,666.706299 
	C277.063202,666.601440 276.140350,666.162537 275.066711,665.452881 
z" data-index="73"></path>

<path fill="#008BFD" opacity="1.000000" stroke="none" d="
M254.760269,377.226257 
	C255.016769,378.391815 255.002106,379.774078 254.913116,381.564850 
	C254.722229,380.463226 254.605682,378.953125 254.760269,377.226257 
z" data-index="75"></path>
<path fill="#0D0405" opacity="1.000000" stroke="none" d="
M270.033508,662.316223 
	C270.875031,662.472229 271.877533,662.903015 272.930359,663.689697 
	C272.051941,663.560730 271.123199,663.075806 270.033508,662.316223 
z" data-index="76"></path>
<path fill="#0D0405" opacity="1.000000" stroke="none" d="
M257.098511,641.314026 
	C257.542664,641.597961 257.936218,642.182434 258.087738,642.920959 
	C257.579742,642.588196 257.313843,642.101379 257.098511,641.314026 
z" data-index="77"></path>

<path fill="#0D0405" opacity="1.000000" stroke="none" d="
M261.728851,361.125916 
	C261.780640,361.532959 261.578918,362.102386 261.096863,362.811035 
	C261.036102,362.396271 261.255707,361.842316 261.728851,361.125916 
z" data-index="79"></path>
<path fill="#0D0405" opacity="1.000000" stroke="none" d="
M260.616516,362.995239 
	C260.711609,363.445221 260.531647,364.047485 260.051300,364.785400 
	C259.947784,364.329834 260.144653,363.738678 260.616516,362.995239 
z" data-index="80"></path>

<path fill="#0D0405" opacity="1.000000" stroke="none" d="
M259.156982,647.288635 
	C259.471771,647.176208 259.683685,647.403015 259.861084,647.944092 
	C259.656433,647.966553 259.398956,647.756409 259.156982,647.288635 
z" data-index="82"></path>
<path fill="#0D0405" opacity="1.000000" stroke="none" d="
M256.702148,372.863678 
	C256.897583,373.061249 256.785095,373.365326 256.395508,373.795227 
	C256.300354,373.637421 256.392273,373.320435 256.702148,372.863678 
z" data-index="83"></path>

<path fill="#0E0101" opacity="1.000000" stroke="none" d="
M769.720764,372.038330 
	C769.946289,372.101532 769.965698,372.544769 769.906677,372.758636 
	C769.541931,372.829559 769.321960,372.603241 769.118530,372.062561 
	C769.049316,371.831573 769.495239,371.975098 769.720764,372.038330 
z" data-index="85" style="visibility: hidden;"></path>

<path fill="#0D0405" opacity="1.000000" stroke="none" d="
M279.986084,668.254456 
	C280.180206,668.094849 280.452087,668.228149 280.822174,668.623230 
	C280.591095,668.902344 280.305603,668.789795 279.986084,668.254456 
z" data-index="87"></path>

<path fill="#0D0405" opacity="1.000000" stroke="none" d="
M258.318420,645.275269 
	C258.534637,645.212097 258.714264,645.412415 258.914673,645.850708 
	C258.719452,645.919067 258.501587,645.735718 258.318420,645.275269 
z" data-index="89"></path>
<path fill="#FEFEFE" opacity="1.000000" stroke="none" d="
M554.917725,327.220032 
	C555.732300,328.102692 556.546875,328.985352 557.806763,330.230042 
	C559.470947,331.476044 560.689941,332.359985 561.908875,333.243896 
	C561.907776,333.591797 562.067322,333.833710 562.751221,334.326416 
	C567.382141,338.196289 571.649475,341.709351 575.916748,345.222412 
	C575.912842,345.568359 576.065857,345.818237 576.745117,346.326569 
	C579.729797,348.810059 582.345154,350.938995 584.960510,353.067932 
	C584.960510,353.067932 584.983093,352.997284 585.116089,353.316132 
	C591.136963,358.501099 597.024780,363.367218 602.912598,368.233368 
	C602.910095,368.579987 603.066162,368.826111 603.748108,369.327026 
	C608.353210,373.196350 612.591003,376.710449 616.828735,380.224518 
	C616.828735,380.224518 616.914734,380.092224 617.003113,380.432922 
	C619.265137,382.818787 621.916321,384.554779 623.491272,386.987549 
	C625.452576,390.017059 627.677856,393.582733 627.792358,396.984131 
	C628.457458,416.742065 628.539490,436.519684 628.811768,456.290771 
	C629.223694,486.193451 629.629944,516.096191 630.038574,545.998901 
	C629.996704,547.070435 629.954834,548.141968 629.932373,550.071838 
	C629.962463,560.201294 629.969910,569.472412 629.984863,578.743530 
	C630.000366,588.314575 630.130554,588.665283 621.088318,591.939209 
	C612.539429,595.034607 603.685303,597.286743 594.965393,599.909790 
	C594.523621,599.928955 594.081787,599.948120 592.968750,599.981445 
	C591.191467,600.312073 590.085449,600.628479 588.979431,600.944946 
	C588.534241,600.947205 588.088989,600.949463 586.889526,600.973633 
	C574.433411,601.627747 562.731567,602.259949 551.062866,602.431213 
	C551.128967,551.638428 551.118225,501.306396 551.224121,450.974609 
	C551.252136,437.650940 551.639160,424.327972 551.861267,411.004700 
	C551.916077,410.562744 551.970825,410.120819 552.349304,409.282410 
	C553.406738,409.376038 554.140381,409.866150 554.874084,410.356232 
	C554.876465,410.689911 555.035034,410.912140 555.707825,411.354401 
	C557.672424,412.846619 559.279053,414.007324 560.885681,415.168030 
	C560.885681,415.168030 560.940857,415.063782 561.032166,415.396942 
	C563.684448,417.570435 566.245483,419.410767 568.806458,421.251099 
	C568.806458,421.251099 568.900513,421.111145 568.997620,421.451324 
	C572.687256,424.314758 576.279785,426.838013 579.872314,429.361267 
	C580.171326,429.651337 580.470398,429.941406 581.158752,430.609619 
	C582.320068,431.391205 583.091980,431.794617 583.863953,432.198029 
	C583.863953,432.198029 583.919373,432.089325 584.025635,432.426483 
	C585.659973,433.766357 587.188110,434.769073 589.008789,435.963776 
	C589.008789,428.828003 588.797485,422.340179 589.094299,415.875671 
	C589.252319,412.434692 588.261902,410.155853 585.114990,408.831970 
	C585.114990,408.831970 585.059570,408.936554 584.971924,408.602051 
	C579.942871,404.145905 575.001404,400.024261 570.059998,395.902618 
	C570.059998,395.902618 570.021667,395.987335 569.927368,395.668182 
	C568.608887,394.493713 567.384827,393.638397 566.160706,392.783081 
	C566.160706,392.783081 566.090271,392.904022 565.998657,392.567871 
	C561.989197,389.084534 558.071289,385.937317 554.153381,382.790131 
	C554.153381,382.790131 554.085205,382.908722 553.992432,382.572632 
	C548.310242,377.762146 542.720764,373.287811 537.131348,368.813477 
	C537.131348,368.813477 537.071899,368.923340 536.978760,368.589844 
	C533.620361,365.755951 530.355042,363.255554 527.089722,360.755188 
	C526.601074,360.202454 526.112427,359.649689 525.206909,358.756165 
	C523.913147,357.870300 523.036194,357.325226 522.159241,356.780121 
	C522.159241,356.780121 522.094849,356.898376 521.996704,356.561890 
	C519.770874,354.533539 517.643250,352.841675 514.987305,350.729767 
	C514.987305,353.126831 514.987793,354.743317 514.987183,356.359772 
	C514.977051,385.981323 515.078979,415.603394 514.931702,445.224274 
	C514.673584,497.139374 514.262573,549.053711 513.595032,600.980957 
	C512.851990,601.044067 512.429504,601.094543 512.007019,601.145081 
	C510.949982,601.040222 509.892914,600.935364 508.164917,600.634155 
	C506.331573,600.339478 505.169220,600.241150 504.006836,600.142822 
	C503.569244,600.051880 503.131683,599.960938 502.062256,599.653809 
	C492.916901,597.537170 484.347626,595.843811 475.932526,593.577759 
	C474.036682,593.067261 472.678650,590.559570 471.073059,588.971252 
	C471.070587,587.906067 471.068146,586.840942 471.031708,584.920288 
	C471.000885,502.039734 471.004822,420.014618 471.001038,337.989471 
	C471.000977,336.661926 470.907043,335.334381 470.856934,334.006836 
	C470.918396,333.262756 470.979858,332.518677 471.312531,331.270508 
	C472.044586,330.172455 472.505402,329.578430 472.966217,328.984406 
	C472.966217,328.984406 473.001526,329.000732 473.279999,328.871765 
	C474.345490,327.816864 475.132477,326.890961 475.954346,325.976013 
	C475.989227,325.986969 475.964447,325.918243 476.251953,325.810181 
	C477.352997,324.799286 478.166534,323.896484 479.252838,322.930298 
	C480.156189,322.190491 480.786774,321.514038 481.417358,320.837585 
	C481.417358,320.837585 481.697815,320.697174 482.023010,320.389282 
	C483.966156,318.439941 485.584106,316.798462 487.202087,315.156982 
	C487.202087,315.157013 487.080841,315.086182 487.432404,315.025513 
	C495.563049,308.324310 503.342163,301.683838 511.121277,295.043365 
	C511.467957,295.069214 511.745575,294.943054 512.337402,294.319336 
	C513.789551,294.127747 515.141968,293.918549 515.880859,294.495331 
	C520.311157,297.953430 524.600281,301.592316 528.936768,305.170593 
	C528.941467,305.524536 529.100159,305.784454 529.791748,306.301727 
	C532.783997,308.761292 535.397400,310.869385 538.010803,312.977478 
	C538.010803,312.977478 538.001892,313.002991 538.172974,313.287720 
	C541.508179,316.120758 544.672241,318.669067 547.836365,321.217346 
	C547.836365,321.217346 547.915588,321.090057 547.999451,321.430481 
	C550.361450,323.587250 552.639587,325.403625 554.917725,327.220032 
z" data-index="90" style="opacity: 1; visibility: visible; fill: rgb(255, 0, 0);"></path>
<path fill="#0075FE" opacity="1.000000" stroke="none" d="
M340.150757,532.640381 
	C351.075623,555.711731 368.181763,572.477112 389.655579,584.968140 
	C425.658844,605.910828 464.583221,618.960205 505.286987,626.975220 
	C527.983521,631.444458 550.901550,634.419128 574.071716,633.933228 
	C600.534973,633.378418 626.231689,628.699219 649.773193,615.946899 
	C670.942566,604.479492 685.706787,587.450439 692.274414,563.877502 
	C696.391479,549.100281 691.530212,536.155640 684.182617,523.722778 
	C677.371704,512.197815 667.602783,503.400482 657.376770,495.066345 
	C647.802551,487.263336 646.310303,483.919739 647.327026,470.758698 
	C653.378662,475.632812 659.141113,480.227997 664.853882,484.884186 
	C680.504333,497.640076 695.706543,510.799744 706.063416,528.578003 
	C723.404053,558.344543 722.168457,592.125061 702.242737,617.699524 
	C690.014526,633.394287 673.750854,643.919250 655.762451,651.911194 
	C634.090393,661.539490 611.347290,667.355347 587.746643,668.911499 
	C567.196899,670.266541 546.565002,670.385742 525.968201,671.009399 
	C522.331299,671.119568 518.688232,671.025085 514.802124,671.025085 
	C514.802124,682.755493 514.734436,694.190613 514.827759,705.624451 
	C514.882996,712.393494 512.206055,717.303040 505.478241,719.009277 
	C503.009766,719.635254 499.568024,719.795471 497.607056,718.543884 
	C469.076019,700.331543 440.501831,682.167847 412.457489,663.223389 
	C404.046234,657.541321 397.229980,649.498169 389.093842,641.993347 
	C404.266235,645.155762 418.048004,648.580444 432.022156,650.786255 
	C446.104645,653.009216 460.378204,654.021790 474.777893,654.553711 
	C468.521454,653.029968 462.197601,651.738281 456.019531,649.944519 
	C417.168427,638.664612 379.937836,623.712097 346.916870,599.837280 
	C329.009918,586.890137 314.222290,571.121338 306.591980,549.776062 
	C300.030579,531.421021 299.761414,513.311523 310.161407,496.206146 
	C313.211029,491.190247 317.193604,486.307892 321.822388,482.768890 
	C334.624023,472.981354 348.282410,464.484985 364.290497,460.743835 
	C366.512634,460.224518 368.827911,460.103729 371.159332,459.790436 
	C373.351349,464.300476 372.145172,468.100555 369.332794,471.095428 
	C364.908875,475.806427 360.159332,480.242676 355.282654,484.491089 
	C344.797607,493.625244 336.286835,503.828094 337.101410,518.764404 
	C337.349182,523.307617 339.002014,527.774170 340.150757,532.640381 
z" data-index="91" style="opacity: 1; visibility: visible; fill: rgb(52, 20, 215);"></path>
<path fill="#FEFEFE" opacity="1.000000" stroke="none" d="
M415.015625,570.142883 
	C415.015625,570.142883 414.595673,569.983826 414.274719,569.710999 
	C413.641083,569.339722 413.328339,569.241272 413.015625,569.142822 
	C413.015625,569.142822 412.594177,568.983948 412.273834,568.710449 
	C411.640778,568.338013 411.328064,568.239136 411.015381,568.140198 
	C411.015381,568.140198 410.594849,567.983521 410.273621,567.707275 
	C409.639771,567.330994 409.327209,567.230957 409.014618,567.130981 
	C409.014618,567.130981 408.589203,566.981262 408.222351,566.642822 
	C402.262360,563.131531 396.669220,559.958679 391.076080,556.785889 
	C390.722229,554.784241 390.368378,552.782532 390.006134,549.923462 
	C390.000610,516.496887 390.032776,483.927765 389.963440,451.358826 
	C389.956085,447.901733 389.353790,444.445892 389.027496,440.989471 
	C389.023987,436.962555 389.020477,432.935638 389.009155,428.081024 
	C388.955841,426.504395 388.910339,425.755463 388.864868,425.006531 
	C388.987549,422.310089 389.110229,419.613678 389.363770,416.174377 
	C390.386749,412.974487 391.278870,410.517395 392.171021,408.060303 
	C393.724091,406.658417 395.277222,405.256561 397.276306,403.444153 
	C399.201477,401.707855 400.680603,400.382050 402.159729,399.056213 
	C402.740570,398.649628 403.321381,398.243011 404.319885,397.467834 
	C405.874603,396.083527 407.011627,395.067810 408.148682,394.052063 
	C408.473480,394.066071 408.748749,393.956116 409.348450,393.387817 
	C410.869263,392.054871 412.016113,391.056305 413.162964,390.057709 
	C413.475220,390.068329 413.747284,389.968872 414.356995,389.429871 
	C415.875336,388.102844 417.015808,387.105316 418.156281,386.107819 
	C418.156281,386.107819 418.057312,386.061188 418.392822,386.015259 
	C419.867371,385.012238 421.006409,384.055176 422.145447,383.098083 
	C422.145416,383.098083 422.049225,383.052582 422.383606,383.006287 
	C423.862244,382.007507 425.006470,381.055023 426.150696,380.102570 
	C426.150696,380.102570 426.053131,380.056305 426.399719,380.002625 
	C428.802063,378.713226 430.857849,377.477509 432.913635,376.241821 
	C432.925446,376.640259 432.937225,377.038696 432.978271,378.136688 
	C433.323578,381.229889 433.639679,383.623535 433.955750,386.017181 
	C433.923248,387.086456 433.890778,388.155762 433.900391,390.078979 
	C433.942505,453.239380 433.942505,515.545837 433.942505,578.021790 
	C433.023254,577.974976 432.048615,577.925354 431.074005,577.875671 
	C431.074005,577.875671 431.030762,577.964355 430.920959,577.620239 
	C429.541565,576.864258 428.271973,576.452332 427.002380,576.040344 
	C427.002380,576.040344 426.579163,575.959534 426.264771,575.680542 
	C425.637177,575.298218 425.324005,575.194946 425.010803,575.091675 
	C425.010803,575.091675 424.586975,574.970581 424.268890,574.692139 
	C423.637970,574.311340 423.325134,574.208923 423.012329,574.106506 
	C423.012329,574.106506 422.587616,573.974670 422.270172,573.704895 
	C421.640167,573.335693 421.327637,573.236328 421.015076,573.136963 
	C421.015076,573.136963 420.593536,572.982727 420.273376,572.710815 
	C419.640686,572.340332 419.328156,572.241882 419.015625,572.143372 
	C419.015625,572.143372 418.595367,571.984436 418.274048,571.708740 
	C417.640137,571.333374 417.327515,571.233704 417.014893,571.134033 
	C417.014893,571.134094 416.594147,570.981384 416.273865,570.709961 
	C415.640930,570.339905 415.328278,570.241394 415.015625,570.142883 
z" data-index="92" style="opacity: 1; visibility: visible; fill: rgb(255, 0, 0);"></path>

<path fill="#050505" opacity="1.000000" stroke="none" d="
M470.472961,334.111511 
	C470.907043,335.334381 471.000977,336.661926 471.001038,337.989471 
	C471.004822,420.014618 471.000885,502.039734 470.933899,584.529297 
	C470.247131,583.166626 469.083008,581.340393 469.079895,579.512268 
	C468.983917,523.079163 469.001648,466.645966 469.001709,410.212769 
	C469.001709,386.740540 468.976807,363.268280 469.048218,339.796265 
	C469.053925,337.935181 469.726379,336.076141 470.472961,334.111511 
z" data-index="94" style="visibility: hidden;"></path>

<path fill="#070808" opacity="1.000000" stroke="none" d="
M551.477173,411.110046 
	C551.639160,424.327972 551.252136,437.650940 551.224121,450.974609 
	C551.118225,501.306396 551.128967,551.638428 551.194336,602.695068 
	C551.863342,603.947388 552.434082,604.474915 553.004761,605.002441 
	C548.365784,605.627014 548.992371,602.393860 548.992798,599.568604 
	C548.999756,552.095337 548.921997,504.621887 549.043579,457.148926 
	C549.080200,442.864319 549.644653,428.580536 550.043884,414.298492 
	C550.072876,413.261841 550.728699,412.242676 551.477173,411.110046 
z" data-index="96" style="visibility: hidden;"></path>

<path fill="#0D0405" opacity="1.000000" stroke="none" d="
M256.326508,600.691895 
	C255.933441,597.931274 255.826630,594.868347 255.722977,590.982300 
	C255.519608,588.912659 255.313110,587.666199 255.106613,586.419800 
	C255.127792,581.800720 255.172073,577.181702 255.166458,572.562622 
	C255.122467,536.354248 255.068909,500.145905 255.080856,463.473145 
	C255.761520,464.174652 256.917816,465.339539 256.920044,466.506622 
	C257.004608,510.654480 256.984192,554.802551 256.960663,598.950562 
	C256.960419,599.430298 256.733734,599.909973 256.326508,600.691895 
z" data-index="98" style="opacity: 1; visibility: hidden;"></path>

<path fill="#0A0A0A" opacity="1.000000" stroke="none" d="
M595.209717,600.201660 
	C603.685303,597.286743 612.539429,595.034607 621.088318,591.939209 
	C630.130554,588.665283 630.000366,588.314575 629.984863,578.743530 
	C629.969910,569.472412 629.962463,560.201294 630.021729,550.466309 
	C633.113647,550.716370 633.558472,552.521423 633.330200,555.522705 
	C632.682312,564.040161 632.486755,572.595276 632.252441,581.139343 
	C632.173157,584.030334 632.699463,586.944336 632.523010,589.821716 
	C632.479614,590.529236 630.565308,591.865295 629.851990,591.669617 
	C624.696411,590.255737 620.978333,593.553406 617.795532,596.159973 
	C614.560486,598.809387 611.428528,599.909851 607.552063,600.019897 
	C603.518127,600.134399 599.486572,600.332153 595.209717,600.201660 
z" data-index="100" style="visibility: hidden; opacity: 1;"></path>

<path fill="#0A0A0A" opacity="1.000000" stroke="none" d="
M510.737610,295.037048 
	C503.342163,301.683838 495.563049,308.324310 487.468323,315.085815 
	C489.182037,310.811432 489.376495,305.635498 496.249084,304.334351 
	C500.258789,303.575226 503.521027,299.014099 507.204346,296.277649 
	C508.079773,295.627258 509.295013,295.434174 510.737610,295.037048 
z" data-index="102" style="visibility: hidden;"></path>

<path fill="#0A0A0A" opacity="1.000000" stroke="none" d="
M602.905273,367.846802 
	C597.024780,363.367218 591.136963,358.501099 585.087769,353.340088 
	C588.681641,352.976135 592.687622,352.247101 593.598572,357.734802 
	C593.772583,358.783112 595.339294,360.383484 596.274109,360.390930 
	C601.156311,360.429749 601.377014,364.491211 602.905273,367.846802 
z" data-index="104" style="visibility: hidden;"></path>

<path fill="#0A0A0A" opacity="1.000000" stroke="none" d="
M528.950928,304.799438 
	C524.600281,301.592316 520.311157,297.953430 515.880859,294.495331 
	C515.141968,293.918549 513.789551,294.127747 512.398621,294.090271 
	C512.467529,291.536621 513.475342,288.358826 516.531982,291.002716 
	C521.116943,294.968536 524.862610,299.904755 528.950928,304.799438 
z" data-index="106" style="visibility: hidden;"></path>

<path fill="#070808" opacity="1.000000" stroke="none" d="
M570.040527,396.317566 
	C575.001404,400.024261 579.942871,404.145905 585.024414,408.574646 
	C582.856567,407.833405 580.438293,406.971161 578.270569,405.686249 
	C575.926147,404.296600 573.635254,402.699951 571.679688,400.820404 
	C570.711548,399.889923 570.548462,398.121674 570.040527,396.317566 
z" data-index="108" style="opacity: 1; visibility: hidden;"></path>

<path fill="#070808" opacity="1.000000" stroke="none" d="
M554.136047,383.159454 
	C558.071289,385.937317 561.989197,389.084534 566.059570,392.533325 
	C561.584229,392.794647 556.137085,388.602905 554.136047,383.159454 
z" data-index="110" style="visibility: hidden; opacity: 1;"></path>

<path fill="#050505" opacity="1.000000" stroke="none" d="
M391.092651,557.142090 
	C396.669220,559.958679 402.262360,563.131531 407.997375,566.627441 
	C402.462585,563.799805 396.785919,560.649048 391.092651,557.142090 
z" data-index="112"></path>

<path fill="#070808" opacity="1.000000" stroke="none" d="
M527.092896,361.132812 
	C530.355042,363.255554 533.620361,365.755951 537.033936,368.560577 
	C531.743774,369.261078 528.514587,366.627350 527.092896,361.132812 
z" data-index="114" style="opacity: 1; visibility: hidden;"></path>

<path fill="#070808" opacity="1.000000" stroke="none" d="
M579.881592,428.991455 
	C576.279785,426.838013 572.687256,424.314758 568.926575,421.496704 
	C572.469299,423.675171 576.180115,426.148407 579.881592,428.991455 
z" data-index="116"></path>
<path fill="#0D0405" opacity="1.000000" stroke="none" d="
M255.522781,444.888672 
	C255.101517,441.301361 255.059555,437.611511 255.079834,433.465332 
	C258.640869,436.725281 257.245941,440.757385 255.522781,444.888672 
z" data-index="117" style="visibility: visible; opacity: 1;"></path>

<path fill="#0A0A0A" opacity="1.000000" stroke="none" d="
M481.042053,320.621216 
	C480.786774,321.514038 480.156189,322.190491 478.888580,322.943909 
	C477.489197,323.986633 476.726807,324.952423 475.964417,325.918243 
	C475.964447,325.918243 475.989227,325.986969 475.633911,325.990784 
	C474.850769,325.994293 474.422943,325.994049 473.995117,325.993805 
	C473.737335,321.168457 476.265991,319.669281 481.042053,320.621216 
z" data-index="119" style="visibility: hidden;"></path>
<path fill="#070808" opacity="1.000000" stroke="none" d="
M568.856995,420.870789 
	C566.245483,419.410767 563.684448,417.570435 560.979797,415.424072 
	C563.526611,416.908875 566.217041,418.699677 568.856995,420.870789 
z" data-index="120"></path>

<path fill="#0D0405" opacity="1.000000" stroke="none" d="
M255.518402,458.893677 
	C255.102707,456.293304 255.059357,453.596741 255.078934,450.454651 
	C258.453949,452.677643 257.223267,455.733246 255.518402,458.893677 
z" data-index="122" style="visibility: visible; opacity: 1;"></path>

<path fill="#0A0A0A" opacity="1.000000" stroke="none" d="
M486.796753,315.111328 
	C485.584106,316.798462 483.966156,318.439941 482.094604,320.249756 
	C481.023468,316.649414 482.558441,314.880737 486.796753,315.111328 
z" data-index="124" style="visibility: hidden;"></path>

<path fill="#050505" opacity="1.000000" stroke="none" d="
M434.247009,385.752502 
	C433.639679,383.623535 433.323578,381.229889 433.071289,378.421387 
	C433.602814,380.500275 434.070557,382.994080 434.247009,385.752502 
z" data-index="126"></path>

<path fill="#070808" opacity="1.000000" stroke="none" d="
M560.885498,414.780945 
	C559.279053,414.007324 557.672424,412.846619 555.922852,411.383850 
	C558.476196,410.652893 560.429932,411.368591 560.885498,414.780945 
z" data-index="128" style="visibility: visible; opacity: 1;"></path>
<path fill="#0D0405" opacity="1.000000" stroke="none" d="
M255.494171,425.907959 
	C255.100662,424.279663 255.059448,422.568207 255.080505,420.432770 
	C258.279175,421.596375 257.339325,423.677155 255.494171,425.907959 
z" data-index="129" style="visibility: visible; opacity: 1;"></path>

<path fill="#070808" opacity="1.000000" stroke="none" d="
M554.882446,409.989624 
	C554.140381,409.866150 553.406738,409.376038 552.345093,408.946533 
	C552.028259,408.406708 552.039429,407.806305 552.050598,407.205933 
	C552.997314,408.011627 553.944092,408.817352 554.882446,409.989624 
z" data-index="131" style="visibility: hidden;"></path>

<path fill="#050505" opacity="1.000000" stroke="none" d="
M412.774536,390.043091 
	C412.016113,391.056305 410.869263,392.054871 409.411194,393.168762 
	C410.195312,392.198853 411.290710,391.113678 412.774536,390.043091 
z" data-index="133" style="visibility: hidden;"></path>
<path fill="#0A0A0A" opacity="1.000000" stroke="none" d="
M561.904175,332.868835 
	C560.689941,332.359985 559.470947,331.476044 558.103027,330.304016 
	C559.269165,330.841888 560.584351,331.667847 561.904175,332.868835 
z" data-index="134"></path>
<path fill="#070808" opacity="1.000000" stroke="none" d="
M566.146240,393.158386 
	C567.384827,393.638397 568.608887,394.493713 569.966309,395.642822 
	C568.776978,395.135620 567.454346,394.334656 566.146240,393.158386 
z" data-index="135"></path>
<path fill="#050505" opacity="1.000000" stroke="none" d="
M417.766052,386.078827 
	C417.015808,387.105316 415.875336,388.102844 414.425659,389.219147 
	C415.202942,388.241913 416.289398,387.145874 417.766052,386.078827 
z" data-index="136"></path>
<path fill="#050505" opacity="1.000000" stroke="none" d="
M504.074402,600.477539 
	C505.169220,600.241150 506.331573,600.339478 507.766846,600.664917 
	C506.740509,600.865540 505.441223,600.838928 504.074402,600.477539 
z" data-index="137"></path>
<path fill="#0A0A0A" opacity="1.000000" stroke="none" d="
M589.190552,601.213989 
	C590.085449,600.628479 591.191467,600.312073 592.647095,600.066528 
	C591.798401,600.585876 590.599976,601.034424 589.190552,601.213989 
z" data-index="138"></path>

<path fill="#050505" opacity="1.000000" stroke="none" d="
M425.770477,380.074951 
	C425.006470,381.055023 423.862244,382.007507 422.406677,383.054199 
	C423.193665,382.114777 424.291962,381.081085 425.770477,380.074951 
z" data-index="140"></path>
<path fill="#050505" opacity="1.000000" stroke="none" d="
M388.547119,425.060303 
	C388.910339,425.755463 388.955841,426.504395 388.930634,427.623322 
	C388.649750,427.033600 388.439575,426.073853 388.547119,425.060303 
z" data-index="141"></path>
<path fill="#050505" opacity="1.000000" stroke="none" d="
M427.074707,576.401001 
	C428.271973,576.452332 429.541565,576.864258 430.965424,577.598877 
	C429.795441,577.534973 428.471222,577.148315 427.074707,576.401001 
z" data-index="142"></path>

<path fill="#050505" opacity="1.000000" stroke="none" d="
M513.594971,600.980957 
	C514.094543,600.976013 514.273499,600.983582 514.720947,600.995605 
	C514.033508,601.263611 513.077576,601.527161 512.064331,601.467896 
	C512.429504,601.094543 512.851990,601.044067 513.594971,600.980957 
z" data-index="144"></path>

<path fill="#050505" opacity="1.000000" stroke="none" d="
M472.637939,328.999023 
	C472.505402,329.578430 472.044586,330.172455 471.326782,330.895935 
	C471.483124,330.354828 471.896393,329.684235 472.637939,328.999023 
z" data-index="146"></path>
<path fill="#070808" opacity="1.000000" stroke="none" d="
M522.158325,357.145752 
	C523.036194,357.325226 523.913147,357.870300 524.930176,358.695557 
	C524.099304,358.487579 523.128357,357.999481 522.158325,357.145752 
z" data-index="147"></path>
<path fill="#070808" opacity="1.000000" stroke="none" d="
M583.827393,431.795807 
	C583.091980,431.794617 582.320068,431.391205 581.346680,430.722473 
	C582.027100,430.769287 582.908936,431.081451 583.827393,431.795807 
z" data-index="148"></path>
<path fill="#0D0405" opacity="1.000000" stroke="none" d="
M255.422943,402.950623 
	C255.100708,402.549500 255.059814,402.107483 255.078857,401.336487 
	C255.621353,401.323364 256.103882,401.639191 256.586426,401.955048 
	C256.292389,402.273285 255.998337,402.591492 255.422943,402.950623 
z" data-index="149"></path>
<path fill="#050505" opacity="1.000000" stroke="none" d="
M411.151611,568.338013 
	C411.328064,568.239136 411.640778,568.338013 412.049255,568.693604 
	C411.821533,568.890198 411.535797,568.752075 411.151611,568.338013 
z" data-index="150"></path>
<path fill="#050505" opacity="1.000000" stroke="none" d="
M415.152344,570.340393 
	C415.328278,570.241394 415.640930,570.339905 416.050659,570.693726 
	C415.823608,570.891174 415.537384,570.754150 415.152344,570.340393 
z" data-index="151"></path>
<path fill="#050505" opacity="1.000000" stroke="none" d="
M417.150909,571.333374 
	C417.327515,571.233704 417.640137,571.333374 418.050110,571.691040 
	C417.821869,571.890381 417.535034,571.751648 417.150909,571.333374 
z" data-index="152"></path>
<path fill="#050505" opacity="1.000000" stroke="none" d="
M419.152161,572.340698 
	C419.328156,572.241882 419.640686,572.340332 420.049561,572.694214 
	C419.822449,572.890869 419.536713,572.753662 419.152161,572.340698 
z" data-index="153"></path>
<path fill="#050505" opacity="1.000000" stroke="none" d="
M421.150909,573.335327 
	C421.327637,573.236328 421.640167,573.335693 422.048157,573.692993 
	C421.819824,573.890076 421.534210,573.751038 421.150909,573.335327 
z" data-index="154"></path>
<path fill="#050505" opacity="1.000000" stroke="none" d="
M423.146576,574.310974 
	C423.325134,574.208923 423.637970,574.311340 424.048767,574.681641 
	C423.816742,574.887268 423.528137,574.742554 423.146576,574.310974 
z" data-index="155"></path>
<path fill="#050505" opacity="1.000000" stroke="none" d="
M425.144318,575.299133 
	C425.324005,575.194946 425.637177,575.298218 426.049408,575.675110 
	C425.815399,575.885742 425.525177,575.738342 425.144318,575.299133 
z" data-index="156"></path>
<path fill="#050505" opacity="1.000000" stroke="none" d="
M413.152374,569.340332 
	C413.328339,569.241272 413.641083,569.339722 414.050842,569.693481 
	C413.823761,569.890991 413.537476,569.754028 413.152374,569.340332 
z" data-index="157"></path>
<path fill="#0E0101" opacity="1.000000" stroke="none" d="
M770.712524,474.113098 
	C770.857239,474.023987 770.961731,474.499939 770.909485,474.737976 
	C770.760803,474.718048 770.664368,474.460114 770.712524,474.113098 
z" data-index="158"></path>
<path fill="#050505" opacity="1.000000" stroke="none" d="
M409.150452,567.330811 
	C409.327209,567.230957 409.639771,567.330994 410.049866,567.690063 
	C409.821381,567.889832 409.534363,567.750366 409.150452,567.330811 
z" data-index="159"></path>

<path fill="#0E0101" opacity="1.000000" stroke="none" d="
M770.115112,377.082520 
	C770.322388,377.052368 770.602844,377.249481 770.867737,377.709106 
	C770.546997,377.835022 770.325745,377.614410 770.115112,377.082520 
z" data-index="161"></path>
<path fill="#0075FE" opacity="1.000000" stroke="none" d="
M255.078781,586.809448 
	C255.313110,587.666199 255.519608,588.912659 255.625946,590.531860 
	C255.367508,589.669556 255.209229,588.434326 255.078781,586.809448 
z" data-index="162"></path>
<path fill="#050505" opacity="1.000000" stroke="none" d="
M476.251953,325.810181 
	C476.726807,324.952423 477.489197,323.986633 478.615814,323.007263 
	C478.166534,323.896484 477.352997,324.799286 476.251953,325.810181 
z" data-index="163"></path>
</svg>